# Blender v2.76 (sub 0) OBJ File: ''
# www.blender.org
o Circle
v -0.000000 -0.077918 -1.261658
v -0.892127 -0.077918 -0.892127
v -1.261658 -0.077918 0.000000
v -0.892127 -0.077918 0.892127
v 0.000000 -0.077918 1.261658
v 0.892127 -0.077918 0.892127
v 1.261658 -0.077918 -0.000000
v 0.892127 -0.077918 -0.892127
v -0.000000 0.394909 -1.261658
v -0.892127 0.394909 -0.892127
v -1.261658 0.394909 0.000000
v -0.892127 0.394909 0.892127
v 0.000000 0.394909 1.261658
v 0.892127 0.394909 0.892127
v 1.261658 0.394909 -0.000000
v 0.892127 0.394909 -0.892127
v 0.000000 0.316991 -0.826711
v -0.584573 0.316991 -0.584573
v -0.826711 0.316991 0.000000
v -0.584573 0.316991 0.584573
v 0.000000 0.316991 0.826711
v 0.584573 0.316991 0.584573
v 0.826711 0.316991 -0.000000
v 0.584573 0.316991 -0.584573
v 0.000000 0.316991 -0.826711
v -0.584573 0.316991 -0.584573
v -0.826711 0.316991 0.000000
v -0.584573 0.316991 0.584573
v 0.000000 0.316991 0.826711
v 0.584573 0.316991 0.584573
v 0.826711 0.316991 -0.000000
v 0.584573 0.316991 -0.584573
v 0.000000 1.995093 -0.826711
v -0.584573 1.995093 -0.584573
v -0.826711 1.995093 0.000000
v -0.584573 1.995093 0.584573
v 0.000000 1.995093 0.826711
v 0.584573 1.995093 0.584573
v 0.826711 1.995093 -0.000000
v 0.584573 1.995093 -0.584573
v 0.000000 1.995093 -0.655287
v -0.463358 1.995093 -0.463358
v -0.655287 1.995093 0.000000
v -0.463358 1.995093 0.463358
v 0.000000 1.995093 0.655287
v 0.463358 1.995093 0.463358
v 0.655287 1.995093 -0.000000
v 0.463358 1.995093 -0.463358
v 0.000000 3.802382 -0.655287
v -0.463358 3.802382 -0.463358
v -0.655287 3.802382 0.000000
v -0.463358 3.802382 0.463358
v 0.000000 3.802382 0.655287
v 0.463358 3.802382 0.463358
v 0.655287 3.802382 -0.000000
v 0.463358 3.802382 -0.463358
v 0.000000 3.802382 -0.373814
v -0.264326 3.802382 -0.264326
v -0.373814 3.802382 0.000000
v -0.264326 3.802382 0.264326
v 0.000000 3.802382 0.373814
v 0.264326 3.802382 0.264326
v 0.373814 3.802382 -0.000000
v 0.264326 3.802382 -0.264326
v 0.000000 6.279503 -0.373814
v -0.264326 6.279503 -0.264326
v -0.373814 6.279503 0.000000
v -0.264326 6.279503 0.264326
v 0.000000 6.279503 0.373814
v 0.264326 6.279503 0.264326
v 0.373814 6.279503 -0.000000
v 0.264326 6.279503 -0.264326
v 0.000000 6.279503 -0.521668
v -0.368875 6.279503 -0.368875
v -0.521668 6.279503 0.000000
v -0.368875 6.279503 0.368875
v 0.000000 6.279503 0.521668
v 0.368875 6.279503 0.368875
v 0.521668 6.279503 -0.000000
v 0.368875 6.279503 -0.368875
v 0.000000 6.797677 -0.521668
v -0.368875 6.797677 -0.368875
v -0.521668 6.797677 0.000000
v -0.368875 6.797677 0.368875
v 0.000000 6.797677 0.521668
v 0.368875 6.797677 0.368875
v 0.521668 6.797677 -0.000000
v 0.368875 6.797677 -0.368875
v 0.000000 6.797677 -0.662206
v -0.468251 6.797677 -0.468251
v -0.662206 6.797677 0.000000
v -0.468251 6.797677 0.468251
v 0.000000 6.797677 0.662206
v 0.468251 6.797677 0.468250
v 0.662206 6.797677 -0.000000
v 0.468251 6.797677 -0.468250
v 0.000000 7.480150 -0.662206
v -0.468251 7.480150 -0.468251
v -0.662206 7.480150 0.000000
v -0.468251 7.480150 0.468251
v 0.000000 7.480150 0.662206
v 0.468251 7.480150 0.468250
v 0.662206 7.480150 -0.000000
v 0.468251 7.480150 -0.468250
v 0.000000 7.480150 -0.955785
v -0.675842 7.480150 -0.675842
v -0.955785 7.480150 0.000000
v -0.675842 7.480150 0.675842
v 0.000000 7.480150 0.955785
v 0.675842 7.480150 0.675842
v 0.955785 7.480150 -0.000000
v 0.675842 7.480150 -0.675842
v 0.000000 7.731583 -0.955785
v -0.675842 7.731583 -0.675842
v -0.955785 7.731583 0.000000
v -0.675842 7.731583 0.675842
v 0.000000 7.731583 0.955785
v 0.675842 7.731583 0.675842
v 0.955785 7.731583 -0.000000
v 0.675842 7.731583 -0.675842
vn 0.000000 0.000000 1.000000
vn 0.000000 -1.000000 0.000000
vn 0.000000 1.000000 0.000000
vn -0.516300 0.683200 -0.516300
vn 0.000000 0.683200 -0.730200
vn 0.000000 -0.630200 -0.776400
vn 0.516300 0.683200 -0.516300
vn 0.549000 -0.630200 -0.549000
vn 0.730200 0.683200 0.000000
vn 0.516300 0.683200 0.516300
vn 0.549000 -0.630200 0.549000
vn 0.000000 0.683200 0.730200
vn -0.516300 0.683200 0.516300
vn -0.549000 -0.630200 0.549000
vn -0.730200 0.683200 0.000000
vn -0.549000 -0.630200 -0.549000
vn 0.776400 -0.630200 0.000000
vn 0.000000 -0.630200 0.776400
vn -0.776400 -0.630200 0.000000
vn 0.000000 0.842900 0.538100
vn 0.103600 0.818300 0.565400
vn 0.137400 0.766800 0.626900
vn 0.091700 0.724000 0.683600
vn -0.091700 0.724000 0.683600
vn -0.137400 0.766800 0.626900
vn -0.103600 0.818300 0.565400
vn 0.000000 0.708200 0.705900
vn 0.549000 0.630200 0.549000
vn 0.000000 0.630200 0.776400
vn -0.549000 0.630200 0.549000
vn -0.776400 0.630200 0.000000
vn -0.678600 0.000000 0.734500
vn -0.549000 0.630200 -0.549000
vn 0.000000 0.630200 -0.776400
vn 0.549000 0.630200 -0.549000
vn 0.883300 0.000000 0.468800
vn 0.776400 0.630200 0.000000
vn 0.367500 0.000000 0.930000
vn -0.367500 0.000000 0.930000
vn -0.883300 0.000000 0.468800
vn 0.678600 0.000000 0.734500
vn 0.420300 0.804200 -0.420300
vn 0.594300 0.804200 0.000000
vn 0.420300 0.804200 0.420300
vn 0.000000 0.804200 0.594300
vn -0.420300 0.804200 0.420300
vn -0.594300 0.804200 0.000000
vn -0.420300 0.804200 -0.420300
vn 0.000000 0.804200 -0.594300
vn 0.420300 -0.804200 -0.420300
vn 0.594300 -0.804200 0.000000
vn 0.420300 -0.804200 0.420300
vn 0.000000 -0.804200 0.594300
vn -0.420300 -0.804200 0.420300
vn -0.594300 -0.804200 0.000000
vn -0.420300 -0.804200 -0.420300
vn 0.000000 -0.804200 -0.594300
vn 0.000000 -0.804200 -0.594400
s off
f 17//1 25//1 32//1
f 23//1 31//1 30//1
f 21//1 29//1 28//1
f 19//1 27//1 26//1
f 24//1 32//1 31//1
f 22//1 30//1 29//1
f 20//1 28//1 27//1
f 18//1 26//1 25//1
f 75//2 74//2 66//2
f 72//2 80//2 79//2
f 70//2 78//2 77//2
f 76//2 75//2 67//2
f 74//2 73//2 65//2
f 73//2 80//2 72//2
f 79//2 78//2 70//2
f 77//2 76//2 68//2
f 92//2 91//2 83//2
f 90//2 89//2 81//2
f 89//2 96//2 88//2
f 95//2 94//2 86//2
f 93//2 92//2 84//2
f 91//2 90//2 82//2
f 96//2 95//2 87//2
f 86//2 94//2 93//2
f 101//2 109//2 108//2
f 107//2 106//2 98//2
f 104//2 112//2 111//2
f 102//2 110//2 109//2
f 108//2 107//2 99//2
f 106//2 105//2 97//2
f 97//2 105//2 112//2
f 111//2 110//2 102//2
f 117//3 119//3 113//3
f 7//2 4//2 3//2
f 24//1 17//1 32//1
f 22//1 23//1 30//1
f 20//1 21//1 28//1
f 18//1 19//1 26//1
f 23//1 24//1 31//1
f 21//1 22//1 29//1
f 19//1 20//1 27//1
f 17//1 18//1 25//1
f 67//2 75//2 66//2
f 71//2 72//2 79//2
f 69//2 70//2 77//2
f 68//2 76//2 67//2
f 66//2 74//2 65//2
f 65//2 73//2 72//2
f 71//2 79//2 70//2
f 69//2 77//2 68//2
f 84//2 92//2 83//2
f 82//2 90//2 81//2
f 81//2 89//2 88//2
f 87//2 95//2 86//2
f 85//2 93//2 84//2
f 83//2 91//2 82//2
f 88//2 96//2 87//2
f 85//2 86//2 93//2
f 100//2 101//2 108//2
f 99//2 107//2 98//2
f 103//2 104//2 111//2
f 101//2 102//2 109//2
f 100//2 108//2 99//2
f 98//2 106//2 97//2
f 104//2 97//2 112//2
f 103//2 111//2 102//2
f 113//3 114//3 117//3
f 115//3 116//3 117//3
f 117//3 118//3 119//3
f 119//3 120//3 113//3
f 114//3 115//3 117//3
f 3//2 2//2 1//2
f 1//2 8//2 3//2
f 7//2 6//2 5//2
f 5//2 4//2 7//2
f 3//2 8//2 7//2
s 1
f 10//4 9//5 1//6
f 9//5 16//7 8//8
f 15//9 14//10 6//11
f 13//12 12//13 4//14
f 11//15 10//4 2//16
f 16//7 15//9 7//17
f 14//10 13//12 5//18
f 12//13 11//15 3//19
f 13//12 21//20 20//21
f 19//22 18//23 10//4
f 16//7 24//24 23//25
f 22//26 21//20 13//12
f 20//21 19//22 11//15
f 18//23 17//27 9//5
f 17//27 24//24 16//7
f 23//25 22//26 14//10
f 38//28 37//29 29//1
f 36//30 35//31 27//32
f 34//33 33//34 25//1
f 33//34 40//35 32//36
f 39//37 38//28 30//38
f 37//29 36//30 28//39
f 35//31 34//33 26//40
f 40//35 39//37 31//41
f 48//42 47//43 39//37
f 46//44 45//45 37//29
f 36//30 44//46 43//47
f 42//48 41//49 33//34
f 41//49 48//42 40//35
f 47//43 46//44 38//28
f 45//45 44//46 36//30
f 35//31 43//47 42//48
f 55//37 54//28 46//44
f 53//29 52//30 44//46
f 51//31 50//33 42//48
f 56//35 55//37 47//43
f 54//28 53//29 45//45
f 52//30 51//31 43//47
f 50//33 49//34 41//49
f 49//34 56//35 48//42
f 58//48 57//49 49//34
f 57//49 64//42 56//35
f 63//43 62//44 54//28
f 53//29 61//45 60//46
f 59//47 58//48 50//33
f 64//42 63//43 55//37
f 62//44 61//45 53//29
f 60//46 59//47 51//31
f 72//50 71//51 63//43
f 70//52 69//53 61//45
f 68//54 67//55 59//47
f 66//56 65//57 57//49
f 65//57 72//50 64//42
f 71//51 70//52 62//44
f 69//53 68//54 60//46
f 67//55 66//56 58//48
f 81//58 88//50 80//8
f 87//51 86//52 78//11
f 85//53 84//54 76//14
f 83//55 82//56 74//16
f 88//50 87//51 79//17
f 86//52 85//53 77//18
f 84//54 83//55 75//19
f 82//56 81//58 73//6
f 104//50 103//51 95//17
f 102//52 101//53 93//18
f 100//54 99//55 91//19
f 98//56 97//57 89//6
f 97//57 104//50 96//8
f 103//51 102//52 94//11
f 101//53 100//54 92//14
f 99//55 98//56 90//16
f 113//34 120//35 112//8
f 119//37 118//28 110//11
f 117//29 116//30 108//14
f 115//31 114//33 106//16
f 120//35 119//37 111//17
f 118//28 117//29 109//18
f 116//30 115//31 107//19
f 114//33 113//34 105//6
f 2//16 10//4 1//6
f 1//6 9//5 8//8
f 7//17 15//9 6//11
f 5//18 13//12 4//14
f 3//19 11//15 2//16
f 8//8 16//7 7//17
f 6//11 14//10 5//18
f 4//14 12//13 3//19
f 12//13 13//12 20//21
f 11//15 19//22 10//4
f 15//9 16//7 23//25
f 14//10 22//26 13//12
f 12//13 20//21 11//15
f 10//4 18//23 9//5
f 9//5 17//27 16//7
f 15//9 23//25 14//10
f 30//38 38//28 29//1
f 28//39 36//30 27//32
f 26//40 34//33 25//1
f 25//1 33//34 32//36
f 31//41 39//37 30//38
f 29//1 37//29 28//39
f 27//32 35//31 26//40
f 32//36 40//35 31//41
f 40//35 48//42 39//37
f 38//28 46//44 37//29
f 35//31 36//30 43//47
f 34//33 42//48 33//34
f 33//34 41//49 40//35
f 39//37 47//43 38//28
f 37//29 45//45 36//30
f 34//33 35//31 42//48
f 47//43 55//37 46//44
f 45//45 53//29 44//46
f 43//47 51//31 42//48
f 48//42 56//35 47//43
f 46//44 54//28 45//45
f 44//46 52//30 43//47
f 42//48 50//33 41//49
f 41//49 49//34 48//42
f 50//33 58//48 49//34
f 49//34 57//49 56//35
f 55//37 63//43 54//28
f 52//30 53//29 60//46
f 51//31 59//47 50//33
f 56//35 64//42 55//37
f 54//28 62//44 53//29
f 52//30 60//46 51//31
f 64//42 72//50 63//43
f 62//44 70//52 61//45
f 60//46 68//54 59//47
f 58//48 66//56 57//49
f 57//49 65//57 64//42
f 63//43 71//51 62//44
f 61//45 69//53 60//46
f 59//47 67//55 58//48
f 73//6 81//58 80//8
f 79//17 87//51 78//11
f 77//18 85//53 76//14
f 75//19 83//55 74//16
f 80//8 88//50 79//17
f 78//11 86//52 77//18
f 76//14 84//54 75//19
f 74//16 82//56 73//6
f 96//8 104//50 95//17
f 94//11 102//52 93//18
f 92//14 100//54 91//19
f 90//16 98//56 89//6
f 89//6 97//57 96//8
f 95//17 103//51 94//11
f 93//18 101//53 92//14
f 91//19 99//55 90//16
f 105//6 113//34 112//8
f 111//17 119//37 110//11
f 109//18 117//29 108//14
f 107//19 115//31 106//16
f 112//8 120//35 111//17
f 110//11 118//28 109//18
f 108//14 116//30 107//19
f 106//16 114//33 105//6
