# Blender v2.76 (sub 0) OBJ File: ''
# www.blender.org
o PotFernLeaves_Cube.012
v -0.667931 7.740023 0.310469
v -0.664268 7.778938 0.308008
v -0.857472 7.740023 0.028466
v -0.853809 7.778938 0.026004
v -0.399350 7.421010 -0.050045
v -0.393527 7.459312 -0.053959
v -0.422225 7.421010 -0.084078
v -0.416402 7.459312 -0.087992
v -0.982618 7.965112 0.634573
v -0.978490 8.025722 0.631798
v -1.272288 8.025722 0.194678
v -1.276416 7.965112 0.197453
v -1.434287 8.035247 1.049414
v -1.443202 8.116426 1.055406
v -1.840026 8.116426 0.465003
v -1.831111 8.035247 0.459011
v -1.714535 7.998990 1.185114
v -1.730696 8.053495 1.195976
v -2.078757 8.053495 0.678122
v -2.062596 7.998990 0.667259
v -2.082597 7.842432 1.277233
v -2.096751 7.878945 1.286746
v -2.301046 7.878945 0.982791
v -2.286892 7.842432 0.973278
v -2.416044 7.643073 1.313354
v -2.418138 7.648474 1.314761
v -2.448358 7.648474 1.269799
v -2.446264 7.643073 1.268392
v 0.049350 7.877101 -0.258157
v 0.044380 7.929641 -0.258845
v -0.013359 7.877101 0.194989
v -0.018329 7.929641 0.194301
v -0.455734 7.446397 -0.125009
v -0.463636 7.498110 -0.126103
v -0.463302 7.446397 -0.070321
v -0.471204 7.498110 -0.071414
v 0.564332 8.180996 -0.313904
v 0.558730 8.262826 -0.314679
v 0.461528 8.262826 0.387720
v 0.467130 8.180996 0.388495
v 1.264144 8.275686 -0.342572
v 1.276241 8.385288 -0.340898
v 1.144954 8.385288 0.607808
v 1.132857 8.275686 0.606134
v 1.603264 8.226734 -0.236238
v 1.625194 8.300323 -0.233203
v 1.510039 8.300323 0.598926
v 1.488109 8.226734 0.595891
v 1.981370 8.015365 -0.008768
v 2.000575 8.064662 -0.006110
v 1.932985 8.064662 0.482310
v 1.913779 8.015365 0.479652
v 2.286928 7.746208 0.245588
v 2.289769 7.753500 0.245981
v 2.279771 7.753500 0.318229
v 2.276930 7.746208 0.317836
v -0.617971 7.697239 -0.425623
v -0.617490 7.733045 -0.421591
v -0.307535 7.697239 -0.462627
v -0.307054 7.733045 -0.458595
v -0.435308 7.403715 -0.054498
v -0.434544 7.438957 -0.048088
v -0.397843 7.403715 -0.058964
v -0.397079 7.438957 -0.052554
v -0.751481 7.904343 -0.819244
v -0.750940 7.960110 -0.814700
v -0.269749 7.960110 -0.872058
v -0.270290 7.904343 -0.876603
v -0.901877 7.968874 -1.363100
v -0.903046 8.043568 -1.372914
v -0.253119 8.043568 -1.450386
v -0.251949 7.968874 -1.440572
v -0.895520 7.935513 -1.649523
v -0.897640 7.985664 -1.667314
v -0.327575 7.985664 -1.735266
v -0.325455 7.935513 -1.717475
v -0.816652 7.791465 -1.989597
v -0.818509 7.825061 -2.005178
v -0.483908 7.825061 -2.045063
v -0.482051 7.791465 -2.029482
v -0.706432 7.608035 -2.277843
v -0.706707 7.613005 -2.280148
v -0.657212 7.613005 -2.286047
v -0.656937 7.608035 -2.283742
v -0.939536 7.859005 -0.221685
v -0.935123 7.911545 -0.218773
v -0.750506 7.859005 -0.508154
v -0.746093 7.911545 -0.505242
v -0.432407 7.428300 -0.067836
v -0.425390 7.480014 -0.063206
v -0.409594 7.428300 -0.102409
v -0.402577 7.480014 -0.097779
v -1.433502 8.162899 -0.434545
v -1.428527 8.244730 -0.431263
v -1.135520 8.244730 -0.875303
v -1.140494 8.162899 -0.878586
v -2.091159 8.257590 -0.756756
v -2.101901 8.367191 -0.763844
v -1.706146 8.367191 -1.363595
v -1.695404 8.257590 -1.356507
v -2.375138 8.208638 -0.997038
v -2.394610 8.282227 -1.009887
v -2.047486 8.282227 -1.535940
v -2.028013 8.208638 -1.523090
v -2.660314 7.997269 -1.341164
v -2.677369 8.046565 -1.352418
v -2.473623 8.046565 -1.661186
v -2.456569 7.997269 -1.649932
v -2.870410 7.728112 -1.668625
v -2.872933 7.735404 -1.670290
v -2.842794 7.735404 -1.715963
v -2.840271 7.728112 -1.714299
v -0.355378 7.724948 -0.410183
v -0.357659 7.760382 -0.407683
v -0.127445 7.724948 -0.202266
v -0.129725 7.760382 -0.199766
v -0.474264 7.434478 -0.078581
v -0.477889 7.469354 -0.074606
v -0.446756 7.434478 -0.053488
v -0.450381 7.469354 -0.049513
v -0.189689 7.929897 -0.717727
v -0.192260 7.985085 -0.714910
v 0.161048 7.985085 -0.392627
v 0.163618 7.929897 -0.395445
v 0.061640 7.993758 -1.117669
v 0.067191 8.067674 -1.123753
v 0.544392 8.067674 -0.688457
v 0.538841 7.993758 -0.682373
v 0.250259 7.960744 -1.265560
v 0.260321 8.010373 -1.276590
v 0.678884 8.010373 -0.894783
v 0.668822 7.960744 -0.883753
v 0.521101 7.818195 -1.388857
v 0.529913 7.851441 -1.398517
v 0.775589 7.851441 -1.174415
v 0.766777 7.818195 -1.164755
v 0.779181 7.636673 -1.461562
v 0.780485 7.641591 -1.462991
v 0.816826 7.641591 -1.429841
v 0.815522 7.636673 -1.428412
v -0.118644 7.832901 0.372037
v -0.120219 7.877840 0.367191
v -0.491807 7.832901 0.493320
v -0.493382 7.877840 0.488474
v -0.434057 7.464506 -0.040311
v -0.436562 7.508738 -0.048017
v -0.479092 7.464506 -0.025674
v -0.481597 7.508738 -0.033380
v 0.141744 8.092831 0.824073
v 0.139968 8.162823 0.818610
v -0.438453 8.162823 1.006604
v -0.436678 8.092831 1.012067
v 0.459566 8.173822 1.456949
v 0.463400 8.267569 1.468746
v -0.317854 8.267569 1.722663
v -0.321688 8.173822 1.710866
v 0.521607 8.131952 1.811126
v 0.528558 8.194895 1.832511
v -0.156696 8.194895 2.055228
v -0.163646 8.131952 2.033842
v 0.507465 7.951162 2.249043
v 0.513552 7.993327 2.267773
v 0.111342 7.993327 2.398496
v 0.105255 7.951162 2.379766
v 0.442082 7.720944 2.630799
v 0.442983 7.727181 2.633570
v 0.383487 7.727181 2.652907
v 0.382587 7.720944 2.650136
vn 0.281500 -0.639200 0.715600
vn 0.381900 -0.656500 0.650500
vn -0.458100 -0.656500 -0.599300
vn 0.413400 0.276400 -0.867500
vn 0.017200 -0.809200 -0.587200
vn -0.556300 -0.639200 -0.530900
vn 0.959400 0.276400 -0.055100
vn 0.550200 -0.809200 0.205800
vn 0.795100 0.552600 0.250000
vn 0.068800 0.552600 -0.830600
vn -0.087900 0.682700 -0.725300
vn -0.414000 -0.646700 -0.640600
vn 0.638400 0.682700 0.355300
vn 0.436800 -0.646700 0.625300
vn 0.407100 -0.680300 0.609400
vn -0.410500 -0.680300 -0.607200
vn 0.373600 0.711600 0.595000
vn -0.409800 0.711600 -0.570600
vn -0.685500 0.630500 -0.363800
vn -0.840900 0.501900 -0.202200
vn -0.130300 0.501900 0.855000
vn 0.078000 0.630500 0.772200
vn -0.325100 -0.718400 -0.614900
vn -0.477400 -0.854200 -0.205900
vn -0.980100 0.148600 0.131100
vn 0.446600 -0.718400 0.533200
vn 0.010400 -0.854200 0.519800
vn -0.491600 0.148600 0.858100
vn 0.280500 -0.624600 -0.728800
vn 0.148400 -0.647800 -0.747200
vn -0.060000 -0.647800 0.759400
vn -0.900700 0.250700 0.354700
vn -0.381300 -0.823800 0.419500
vn 0.072100 -0.624600 0.777600
vn -0.770600 0.250700 -0.586000
vn -0.253000 -0.823800 -0.507300
vn -0.485800 0.513800 -0.707100
vn -0.659500 0.513800 0.548600
vn -0.462900 0.670700 0.579500
vn -0.120400 -0.635900 0.762300
vn -0.288100 0.670700 -0.683500
vn 0.091200 -0.635900 -0.766400
vn 0.114500 -0.674300 -0.729500
vn -0.087800 -0.674300 0.733200
vn 0.119700 0.712500 -0.691400
vn -0.072600 0.712500 0.697900
vn 0.318200 0.615200 0.721300
vn 0.554200 0.465000 0.690400
vn 0.720900 0.465000 -0.513900
vn 0.502100 0.615200 -0.607700
vn -0.170100 -0.713400 0.679800
vn 0.212600 -0.864100 0.456300
vn 0.831800 0.134000 0.538600
vn 0.020900 -0.713400 -0.700500
vn 0.328500 -0.864100 -0.381400
vn 0.946800 0.134000 -0.292500
vn -0.765300 -0.639200 -0.075500
vn -0.753100 -0.656500 0.043500
vn 0.742200 -0.656500 -0.134700
vn 0.583900 0.276400 0.763300
vn 0.514900 -0.809200 0.282900
vn 0.726100 -0.639200 -0.253200
vn -0.388100 0.276400 0.879200
vn -0.433900 -0.809200 0.396000
vn -0.584800 0.552600 0.593800
vn 0.708000 0.552600 0.439700
vn 0.685700 0.682700 0.252300
vn 0.758900 -0.646700 -0.076600
vn -0.607200 0.682700 0.406400
vn -0.755600 -0.646700 0.103900
vn -0.728000 -0.680300 0.084700
vn -0.699900 0.711600 0.061400
vn 0.694700 0.711600 -0.104800
vn 0.636200 0.630500 -0.444400
vn 0.563200 0.501900 -0.656400
vn -0.701700 0.501900 -0.505600
vn 0.727500 -0.680300 -0.088700
vn -0.722900 0.630500 -0.282400
vn 0.695500 -0.718400 -0.009200
vn 0.400900 -0.854200 -0.331100
vn 0.329900 0.148600 -0.932200
vn -0.678200 -0.718400 0.154500
vn -0.539800 0.148600 -0.828600
vn -0.467400 -0.854200 -0.227600
vn 0.226100 -0.611700 -0.758000
vn -0.608000 -0.611700 0.506100
vn -0.490800 -0.643700 0.587200
vn 0.965000 0.261100 0.023100
vn 0.536800 -0.810400 -0.234800
vn 0.400800 0.261100 0.878200
vn -0.004800 -0.810400 0.585800
vn 0.080900 0.539000 0.838400
vn 0.802600 0.539000 -0.255300
vn 0.641500 0.680200 -0.354500
vn 0.346800 -0.643700 -0.682100
vn 0.428700 -0.647700 -0.629800
vn -0.073600 0.680200 0.729300
vn -0.410400 -0.647700 0.641900
vn -0.377300 -0.666600 0.642800
vn 0.442600 -0.666600 -0.599700
vn -0.400800 0.720100 0.566300
vn 0.363000 0.720100 -0.591300
vn -0.679300 0.636300 0.365600
vn 0.068900 0.636300 -0.768300
vn -0.133100 0.502200 -0.854500
vn 0.510600 -0.684600 -0.520200
vn 0.032200 -0.847100 -0.530400
vn -0.471400 0.143100 -0.870200
vn -0.837900 0.502200 0.213700
vn -0.277400 -0.684600 0.674100
vn -0.475000 -0.847100 0.238300
vn -0.985500 0.143200 -0.091200
vn -0.441800 -0.624600 -0.643900
vn -0.531800 -0.647800 -0.545500
vn 0.591900 -0.647800 0.479500
vn -0.217700 0.250700 0.943200
vn 0.129900 -0.823800 0.551800
vn 0.681700 -0.624600 0.380900
vn -0.919300 0.250700 0.303300
vn -0.561400 -0.823800 -0.078700
vn -0.857900 0.513800 -0.000100
vn 0.078700 0.513800 0.854300
vn 0.215500 0.670700 0.709700
vn 0.560200 -0.635900 0.530900
vn -0.726500 0.670700 -0.149500
vn -0.580000 -0.635900 -0.509100
vn -0.536400 -0.674300 -0.507500
vn 0.554600 -0.674300 0.487600
vn -0.502100 0.712500 -0.490200
vn 0.534100 0.712500 0.455000
vn 0.774700 0.615200 0.146200
vn 0.882800 0.465000 -0.065800
vn -0.015300 0.465000 -0.885200
vn -0.216600 0.615200 -0.758000
vn 0.463900 -0.713400 0.525200
vn 0.496400 -0.864000 0.083100
vn 0.915000 0.134000 -0.380500
vn -0.565500 -0.713400 -0.413900
vn -0.128300 -0.864000 -0.486700
vn 0.295100 0.134000 -0.946000
vn 0.765300 -0.639200 -0.074700
vn 0.730200 -0.656500 -0.189000
vn -0.701900 -0.656500 0.276400
vn -0.721100 0.276400 -0.635300
vn -0.560000 -0.809200 -0.177400
vn -0.663000 -0.639200 0.389500
vn 0.209800 0.276400 -0.937800
vn 0.348700 -0.809200 -0.472800
vn 0.458200 0.552600 -0.696200
vn -0.780000 0.552600 -0.293700
vn -0.721700 0.682700 -0.114200
vn -0.729500 -0.646700 0.222600
vn 0.516600 0.682700 -0.516600
vn 0.721000 -0.646700 -0.248800
vn 0.697700 -0.680300 -0.224600
vn -0.696400 -0.680300 0.228500
vn 0.674600 0.711600 -0.196300
vn -0.661100 0.711600 0.237800
vn -0.537700 0.630500 0.559600
vn -0.424900 0.501900 0.753300
vn 0.786600 0.501900 0.359600
vn 0.764000 0.630500 0.136500
vn -0.680400 -0.718400 0.144200
vn -0.328900 -0.854200 0.402700
vn -0.142400 0.148600 0.978600
vn 0.635200 -0.718400 -0.283400
vn 0.502800 -0.854200 0.132400
vn 0.690500 0.148600 0.707800
s 1
f 1//1 9//2 12//3
f 8//4 7//5 3//6
f 8//4 6//7 5//8
f 6//7 2//9 1//1
f 1//1 3//6 7//5
f 6//7 8//4 4//10
f 11//11 12//3 16//12
f 4//10 11//11 10//13
f 4//10 3//6 12//3
f 2//9 10//13 9//2
f 13//14 17//15 20//16
f 10//13 14//17 13//14
f 9//2 13//14 16//12
f 11//11 15//18 14//17
f 19//19 23//20 22//21
f 15//18 19//19 18//22
f 15//18 16//12 20//16
f 14//17 18//22 17//15
f 24//23 28//24 27//25
f 20//16 24//23 23//20
f 17//15 18//22 22//21
f 17//15 21//26 24//23
f 27//25 28//24 25//27
f 21//26 22//21 26//28
f 21//26 25//27 28//24
f 22//21 23//20 27//25
f 29//29 37//30 40//31
f 36//32 35//33 31//34
f 36//32 34//35 33//36
f 34//35 30//37 29//29
f 29//29 31//34 35//33
f 36//32 32//38 30//37
f 39//39 40//31 44//40
f 30//37 32//38 39//39
f 32//38 31//34 40//31
f 30//37 38//41 37//30
f 41//42 45//43 48//44
f 38//41 42//45 41//42
f 40//31 37//30 41//42
f 39//39 43//46 42//45
f 47//47 51//48 50//49
f 43//46 47//47 46//50
f 43//46 44//40 48//44
f 42//45 46//50 45//43
f 52//51 56//52 55//53
f 48//44 52//51 51//48
f 45//43 46//50 50//49
f 45//43 49//54 52//51
f 55//53 56//52 53//55
f 49//54 50//49 54//56
f 52//51 49//54 53//55
f 50//49 51//48 55//53
f 57//57 65//58 68//59
f 64//60 63//61 59//62
f 64//60 62//63 61//64
f 62//63 58//65 57//57
f 59//62 63//61 61//64
f 64//60 60//66 58//65
f 67//67 68//59 72//68
f 60//66 67//67 66//69
f 60//66 59//62 68//59
f 58//65 66//69 65//58
f 72//68 69//70 73//71
f 66//69 70//72 69//70
f 65//58 69//70 72//68
f 67//67 71//73 70//72
f 75//74 79//75 78//76
f 70//72 71//73 75//74
f 71//73 72//68 76//77
f 70//72 74//78 73//71
f 80//79 84//80 83//81
f 76//77 80//79 79//75
f 73//71 74//78 78//76
f 73//71 77//82 80//79
f 82//83 83//81 84//80
f 77//82 78//76 82//83
f 77//82 81//84 84//80
f 79//75 83//81 82//83
f 87//85 85//86 93//87
f 92//88 91//89 87//85
f 92//88 90//90 89//91
f 90//90 86//92 85//86
f 87//85 91//89 89//91
f 90//90 92//88 88//93
f 95//94 96//95 100//96
f 88//93 95//94 94//97
f 88//93 87//85 96//95
f 86//92 94//97 93//87
f 97//98 101//99 104//100
f 94//97 98//101 97//98
f 93//87 97//98 100//96
f 95//94 99//102 98//101
f 102//103 103//104 107//105
f 98//101 99//102 103//104
f 99//102 100//96 104//100
f 98//101 102//103 101//99
f 108//106 112//107 111//108
f 104//100 108//106 107//105
f 101//99 102//103 106//109
f 101//99 105//110 108//106
f 111//108 112//107 109//111
f 105//110 106//109 110//112
f 105//110 109//111 112//107
f 106//109 107//105 111//108
f 113//113 121//114 124//115
f 120//116 119//117 115//118
f 120//116 118//119 117//120
f 118//119 114//121 113//113
f 115//118 119//117 117//120
f 118//119 120//116 116//122
f 123//123 124//115 128//124
f 116//122 123//123 122//125
f 116//122 115//118 124//115
f 114//121 122//125 121//114
f 125//126 129//127 132//128
f 122//125 126//129 125//126
f 121//114 125//126 128//124
f 123//123 127//130 126//129
f 131//131 135//132 134//133
f 126//129 127//130 131//131
f 127//130 128//124 132//128
f 126//129 130//134 129//127
f 136//135 140//136 139//137
f 132//128 136//135 135//132
f 129//127 130//134 134//133
f 132//128 129//127 133//138
f 139//137 140//136 137//139
f 133//138 134//133 138//140
f 136//135 133//138 137//139
f 134//133 135//132 139//137
f 141//141 149//142 152//143
f 148//144 147//145 143//146
f 148//144 146//147 145//148
f 146//147 142//149 141//141
f 143//146 147//145 145//148
f 146//147 148//144 144//150
f 151//151 152//143 156//152
f 142//149 144//150 151//151
f 144//150 143//146 152//143
f 142//149 150//153 149//142
f 153//154 157//155 160//156
f 150//153 154//157 153//154
f 152//143 149//142 153//154
f 151//151 155//158 154//157
f 159//159 163//160 162//161
f 155//158 159//159 158//162
f 155//158 156//152 160//156
f 154//157 158//162 157//155
f 164//163 168//164 167//165
f 160//156 164//163 163//160
f 157//155 158//162 162//161
f 157//155 161//166 164//163
f 167//165 168//164 165//167
f 161//166 162//161 166//168
f 161//166 165//167 168//164
f 163//160 167//165 166//168
f 3//6 1//1 12//3
f 4//10 8//4 3//6
f 7//5 8//4 5//8
f 5//8 6//7 1//1
f 5//8 1//1 7//5
f 2//9 6//7 4//10
f 15//18 11//11 16//12
f 2//9 4//10 10//13
f 11//11 4//10 12//3
f 1//1 2//9 9//2
f 16//12 13//14 20//16
f 9//2 10//13 13//14
f 12//3 9//2 16//12
f 10//13 11//11 14//17
f 18//22 19//19 22//21
f 14//17 15//18 18//22
f 19//19 15//18 20//16
f 13//14 14//17 17//15
f 23//20 24//23 27//25
f 19//19 20//16 23//20
f 21//26 17//15 22//21
f 20//16 17//15 24//23
f 26//28 27//25 25//27
f 25//27 21//26 26//28
f 24//23 21//26 28//24
f 26//28 22//21 27//25
f 31//34 29//29 40//31
f 32//38 36//32 31//34
f 35//33 36//32 33//36
f 33//36 34//35 29//29
f 33//36 29//29 35//33
f 34//35 36//32 30//37
f 43//46 39//39 44//40
f 38//41 30//37 39//39
f 39//39 32//38 40//31
f 29//29 30//37 37//30
f 44//40 41//42 48//44
f 37//30 38//41 41//42
f 44//40 40//31 41//42
f 38//41 39//39 42//45
f 46//50 47//47 50//49
f 42//45 43//46 46//50
f 47//47 43//46 48//44
f 41//42 42//45 45//43
f 51//48 52//51 55//53
f 47//47 48//44 51//48
f 49//54 45//43 50//49
f 48//44 45//43 52//51
f 54//56 55//53 53//55
f 53//55 49//54 54//56
f 56//52 52//51 53//55
f 54//56 50//49 55//53
f 59//62 57//57 68//59
f 60//66 64//60 59//62
f 63//61 64//60 61//64
f 61//64 62//63 57//57
f 57//57 59//62 61//64
f 62//63 64//60 58//65
f 71//73 67//67 72//68
f 58//65 60//66 66//69
f 67//67 60//66 68//59
f 57//57 58//65 65//58
f 76//77 72//68 73//71
f 65//58 66//69 69//70
f 68//59 65//58 72//68
f 66//69 67//67 70//72
f 74//78 75//74 78//76
f 74//78 70//72 75//74
f 75//74 71//73 76//77
f 69//70 70//72 73//71
f 79//75 80//79 83//81
f 75//74 76//77 79//75
f 77//82 73//71 78//76
f 76//77 73//71 80//79
f 81//84 82//83 84//80
f 81//84 77//82 82//83
f 80//79 77//82 84//80
f 78//76 79//75 82//83
f 96//95 87//85 93//87
f 88//93 92//88 87//85
f 91//89 92//88 89//91
f 89//91 90//90 85//86
f 85//86 87//85 89//91
f 86//92 90//90 88//93
f 99//102 95//94 100//96
f 86//92 88//93 94//97
f 95//94 88//93 96//95
f 85//86 86//92 93//87
f 100//96 97//98 104//100
f 93//87 94//97 97//98
f 96//95 93//87 100//96
f 94//97 95//94 98//101
f 106//109 102//103 107//105
f 102//103 98//101 103//104
f 103//104 99//102 104//100
f 97//98 98//101 101//99
f 107//105 108//106 111//108
f 103//104 104//100 107//105
f 105//110 101//99 106//109
f 104//100 101//99 108//106
f 110//112 111//108 109//111
f 109//111 105//110 110//112
f 108//106 105//110 112//107
f 110//112 106//109 111//108
f 115//118 113//113 124//115
f 116//122 120//116 115//118
f 119//117 120//116 117//120
f 117//120 118//119 113//113
f 113//113 115//118 117//120
f 114//121 118//119 116//122
f 127//130 123//123 128//124
f 114//121 116//122 122//125
f 123//123 116//122 124//115
f 113//113 114//121 121//114
f 128//124 125//126 132//128
f 121//114 122//125 125//126
f 124//115 121//114 128//124
f 122//125 123//123 126//129
f 130//134 131//131 134//133
f 130//134 126//129 131//131
f 131//131 127//130 132//128
f 125//126 126//129 129//127
f 135//132 136//135 139//137
f 131//131 132//128 135//132
f 133//138 129//127 134//133
f 136//135 132//128 133//138
f 138//140 139//137 137//139
f 137//139 133//138 138//140
f 140//136 136//135 137//139
f 138//140 134//133 139//137
f 143//146 141//141 152//143
f 144//150 148//144 143//146
f 147//145 148//144 145//148
f 145//148 146//147 141//141
f 141//141 143//146 145//148
f 142//149 146//147 144//150
f 155//158 151//151 156//152
f 150//153 142//149 151//151
f 151//151 144//150 152//143
f 141//141 142//149 149//142
f 156//152 153//154 160//156
f 149//142 150//153 153//154
f 156//152 152//143 153//154
f 150//153 151//151 154//157
f 158//162 159//159 162//161
f 154//157 155//158 158//162
f 159//159 155//158 160//156
f 153//154 154//157 157//155
f 163//160 164//163 167//165
f 159//159 160//156 163//160
f 161//166 157//155 162//161
f 160//156 157//155 164//163
f 166//168 167//165 165//167
f 165//167 161//166 166//168
f 164//163 161//166 168//164
f 162//161 163//160 166//168
